<?xml version="1.0" standalone="no"?><!DOCTYPE svg PUBLIC "-//W3C//DTD SVG 1.1//EN" "http://www.w3.org/Graphics/SVG/1.1/DTD/svg11.dtd"><svg t="1764766148062" class="icon" viewBox="0 0 1024 1024" version="1.1" xmlns="http://www.w3.org/2000/svg" p-id="5516" xmlns:xlink="http://www.w3.org/1999/xlink" width="32" height="32"><path d="M792.19 967.3H266.6c-82.01 0-148.74-66.71-148.74-148.72V182.73c0-20.71 16.78-37.47 37.47-37.47s37.47 16.76 37.47 37.47v635.86c0 40.69 33.1 73.77 73.79 73.77h525.6c20.69 0 37.47 16.76 37.47 37.47 0.01 20.71-16.77 37.47-37.47 37.47z" fill="#4181BA" p-id="5517"></path><path d="M833.97 744.81H371.88c-39.47 0-71.56-32.09-71.56-71.58V126.74c0-39.48 32.09-71.58 71.56-71.58h462.09c39.47 0 71.56 32.09 71.56 71.58v546.49c-0.01 39.49-32.1 71.58-71.56 71.58z m-458.71-74.94H830.6V130.11H375.26v539.76z" fill="#4181BA" p-id="5518"></path><path d="M554.97 538.31m-111.04 0a111.04 111.04 0 1 0 222.08 0 111.04 111.04 0 1 0-222.08 0Z" fill="#2AAAA8" p-id="5519"></path><path d="M627.65 275.51h38.13v269.92h-38.13z" fill="#2AAAA8" p-id="5520"></path><path d="M774.7 259.26c0 15.37-12.71 28.08-28.37 28.08-1.48 0-2.66 0-3.84-0.3-2.66-0.29-5.03-0.29-7.68-0.29-34.28 0-63.25 22.76-72.11 54.08-21.28-13.3-35.17-36.65-35.17-63.54 0-41.38 33.69-75.07 75.36-75.07 28.96 0 54.09 16.55 66.79 40.49 2.07 3.25 3.55 6.8 4.43 10.94 0.29 1.77 0.59 3.55 0.59 5.61z" fill="#2AAAA8" p-id="5521"></path></svg>